<svg width="188" height="33" viewBox="0 0 188 33" fill="none" xmlns="http://www.w3.org/2000/svg">
<path fill-rule="evenodd" clip-rule="evenodd" d="M0 23.9539V23.9735L16 33V23.5232L7.98998 19L0 23.9539Z" fill="#242424"/>
<path fill-rule="evenodd" clip-rule="evenodd" d="M0 24L8 19.1223V1.11579L0 1V24Z" fill="#242424"/>
<path fill-rule="evenodd" clip-rule="evenodd" d="M16 1V24L24 19.2949V1.11653L16 1Z" fill="#242424"/>
<path d="M37 1.2069L44.8649 25.5862H51.7682L59.6675 1.2069H54.138L49.1237 17.5517L48.3337 20.6897L47.5095 17.5517L42.5295 1.2069H37Z" fill="#242424"/>
<path d="M67.6134 25.5862V7.41379H62.29V25.5862H67.6134ZM67.9569 2.68966C67.9569 1.13793 67.0983 0 64.9689 0C62.8052 0 61.9466 1.13793 61.9466 2.68966C61.9466 4.27586 62.8052 5.41379 64.9689 5.41379C67.0983 5.41379 67.9569 4.24138 67.9569 2.68966Z" fill="#242424"/>
<path d="M71.7482 7.41379V25.5862H77.0716V13.1034C77.4494 12.6207 78.9949 11.6552 81.5708 11.6552C82.2233 11.6552 82.5324 11.6897 82.5324 11.6897L82.7041 7.03448C79.7848 7.03448 77.8272 8.13793 76.6595 9.51724L76.0413 7.41379H71.7482Z" fill="#242424"/>
<path d="M96.1447 21.2414C96.1447 21.2414 95.3548 21.7241 94.084 21.7241C92.6415 21.7241 91.7829 21.0345 91.7829 19.5172V11.6207H96.2134L96.3851 7.41379H91.7486V2.72414H87.1121L86.4939 7.41379H84.2615V11.6207H86.3908V19.5172C86.3908 24.3448 88.6576 25.9655 92.2981 25.9655C94.874 25.9655 96.5912 25.1724 96.5912 25.1724L96.1447 21.2414Z" fill="#242424"/>
<path d="M99.6492 7.41379V19.2069C99.6492 23.3448 101.744 25.9655 105.66 25.9655C109.403 25.9655 111.601 23.5517 111.601 23.5517L112.219 25.5862H116.512V7.41379H111.189V20.3448C111.189 20.3448 109.643 21.6897 107.651 21.6897C105.866 21.6897 104.973 20.6897 104.973 18.7241V7.41379H99.6492Z" fill="#242424"/>
<path d="M129.03 21.6207C129.03 21.6207 128.583 21.7931 127.828 21.7931C126.591 21.7931 125.939 21.2414 125.939 19.5862V0.379312H120.616V20.1724C120.616 23.5517 121.818 25.9655 125.905 25.9655C127.794 25.9655 128.927 25.4828 129.27 25.2759L129.03 21.6207Z" fill="#242424"/>
<path d="M146.14 20.8966C146.14 20.8966 144.148 21.931 141.194 21.931C138.309 21.931 136.592 20.8276 136.42 18.069H147.376C147.376 18.069 147.719 16.3793 147.719 14.7586C147.719 10.3793 145.212 7.03448 139.854 7.03448C134.153 7.03448 131.062 10.7931 131.062 16.7586C131.062 22.069 133.501 25.9655 140.164 25.9655C144.113 25.9655 146.861 24.7241 146.861 24.7241L146.14 20.8966ZM142.568 14.6207H136.42C136.557 12.0345 137.759 10.8966 139.648 10.8966C141.606 10.8966 142.568 12.1379 142.568 14.2414V14.6207Z" fill="#242424"/>
<path d="M152.506 12.4138C152.506 12.4138 154.739 11.2069 157.795 11.2069C160.474 11.2069 161.402 12.1379 161.402 14V15.1379C161.058 15.1034 159.65 15 158.517 15C153.262 15 150.617 17.3103 150.617 20.7586C150.617 24.0345 152.987 25.9655 156.387 25.9655C160.131 25.9655 162.054 23.6207 162.054 23.6207L162.501 25.5862H166.725V13.5172C166.725 8.58621 163.771 7.03448 159.032 7.03448C154.67 7.03448 151.751 8.34483 151.751 8.34483L152.506 12.4138ZM161.402 20.8276C161.402 20.8276 160.268 22.1379 158.173 22.1379C157.212 22.1379 155.872 21.8621 155.872 20.3103C155.872 18.6552 157.452 18.3103 159.169 18.3103C160.474 18.3103 161.402 18.5172 161.402 18.5172V20.8276Z" fill="#242424"/>
<path d="M170.69 7.41379V33H176.014V26.6552L175.945 25.5862C176.288 25.6207 177.319 25.9655 178.796 25.9655C183.982 25.9655 188 22.931 188 16.069C188 10.2759 185.115 7.03448 181.028 7.03448C177.491 7.03448 175.602 9.51724 175.602 9.51724L175.018 7.41379H170.69ZM176.014 12.6897C176.014 12.6897 177.388 11.3448 179.242 11.3448C181.543 11.3448 182.677 13.3103 182.677 16.5172C182.677 20.1034 181.303 21.8276 178.487 21.8276C177.078 21.8276 176.014 21.3793 176.014 21.3793V12.6897Z" fill="#242424"/>
</svg>
